# xmcd
#
# Track frame offsets:
#	150
#	12688
#	25253
#	36745
#	49691
#	61608
#	73582
#	82400
#	95441
#	108489
#	119034
#	130619
#	142414
#	153887
#	164804
#	174152
#	185365
#	197703
#
# Disc length: 2795 seconds
#
# Revision: 1
# Processed by: cddbd v1.5.1PL0 Copyright (c) Steve Scherf et al.
# Submitted via: audiograbber 1.83.01
#
DISCID=0b0ae912
DTITLE=div - Country History#5
DYEAR=2005
DGENRE=Country
TTITLE0=Lone Star Cowboys - Banjo Boogie
TTITLE1=Sonny Hall - Better Make Up Your Mind
TTITLE2=Chet Atkins - Canned Heat
TTITLE3=Sons Of The Pioneers - Cigareetes, Whusky
TTITLE4=Billy Hughes - Cocaine Blues
TTITLE5=Bill Haley - Rose Of My Heart
TTITLE6=Johnny Bond - Ridin' Down To Santa Fe
TTITLE7=Bill Haley - Yodel Your Blues Away
TTITLE8=Cliffie Stone - Peepin' Through The Keyhole
TTITLE9=Hank Thompson - Who's A Sailor?
TTITLE10=Smiley Whitley - West Wind
TTITLE11=Bill Haley - Wreck On The Highway
TTITLE12=The Stanley Brothers - The Fields Have Turned Brown
TTITLE13=Tennessee Ernie Ford - Tennessee Border
TTITLE14=Johnny Bond - So Long To The River Valley
TTITLE15=Lone Star Playboys - Steel Guitar Bounce
TTITLE16=Floyd Tillman - Slippin' Around
TTITLE17=Molly O'Day - Poor Ellen Smith
EXTD=
EXTT0=
EXTT1=
EXTT2=
EXTT3=
EXTT4=
EXTT5=
EXTT6=
EXTT7=
EXTT8=
EXTT9=
EXTT10=
EXTT11=
EXTT12=
EXTT13=
EXTT14=
EXTT15=
EXTT16=
EXTT17=
PLAYORDER=
